<svg width="16" height="18" viewBox="0 0 16 18" fill="none" xmlns="http://www.w3.org/2000/svg">
<path d="M13.3984 4.70306C12.3828 3.07806 11.0625 1.67962 9.91406 0.531185C9.84323 0.460984 9.75663 0.408752 9.66149 0.378852C9.56635 0.348951 9.46544 0.342251 9.36719 0.35931C9.26823 0.374896 9.17455 0.414337 9.09424 0.474227C9.01394 0.534117 8.94941 0.612656 8.90625 0.70306L6.49219 5.76556L3.97656 4.08587C3.83858 3.99454 3.67031 3.96088 3.50781 3.99212C3.4272 4.00803 3.35051 4.03968 3.28215 4.08526C3.21378 4.13084 3.15507 4.18945 3.10938 4.25775C1.58594 6.55462 0.8125 8.63275 0.8125 10.4374C0.8125 12.3437 1.56975 14.1718 2.91767 15.5198C4.26559 16.8677 6.09376 17.6249 8 17.6249C9.90624 17.6249 11.7344 16.8677 13.0823 15.5198C14.4302 14.1718 15.1875 12.3437 15.1875 10.4374C15.1875 8.49212 14.6016 6.61712 13.3984 4.70306ZM12.6328 11.1562C12.485 12.1415 12.0251 13.0534 11.3205 13.758C10.616 14.4625 9.70408 14.9225 8.71875 15.0702H8.625C8.46819 15.0691 8.31755 15.009 8.20296 14.9019C8.08838 14.7949 8.01823 14.6487 8.00643 14.4923C7.99462 14.3359 8.04204 14.1808 8.13925 14.0578C8.23647 13.9348 8.37639 13.8527 8.53125 13.8281C9.24951 13.7113 9.91286 13.3716 10.4274 12.857C10.942 12.3425 11.2817 11.6791 11.3984 10.9609C11.4071 10.8767 11.4327 10.7951 11.4738 10.7212C11.5149 10.6472 11.5706 10.5823 11.6375 10.5305C11.7044 10.4787 11.7812 10.441 11.8631 10.4198C11.945 10.3985 12.0304 10.3941 12.114 10.4068C12.1977 10.4195 12.2779 10.4491 12.3498 10.4937C12.4217 10.5383 12.4838 10.5971 12.5323 10.6664C12.5808 10.7358 12.6147 10.8143 12.632 10.8971C12.6493 10.9799 12.6496 11.0654 12.6328 11.1484V11.1562Z" fill="#FF7534"/>
</svg>
