<svg width="20" height="20" viewBox="0 0 20 20" fill="none" xmlns="http://www.w3.org/2000/svg">
<path fill-rule="evenodd" clip-rule="evenodd" d="M10 20C15.5228 20 20 15.5228 20 10C20 4.47715 15.5228 0 10 0C4.47715 0 0 4.47715 0 10C0 15.5228 4.47715 20 10 20ZM10.045 6.55194L13.0967 8.73823V8.73979C13.2992 8.88498 13.4639 9.07471 13.5774 9.29362C13.6909 9.51253 13.75 9.75447 13.75 9.99987C13.75 10.2453 13.6909 10.4872 13.5774 10.7061C13.4639 10.925 13.2992 11.1148 13.0967 11.2599L10.045 13.4462C9.80677 13.6175 9.52462 13.7208 9.22991 13.7447C8.9352 13.7685 8.63949 13.712 8.37569 13.5815C8.1119 13.4509 7.89037 13.2513 7.73576 13.0051C7.58116 12.7588 7.49954 12.4754 7.5 12.1865V7.8117C7.50024 7.52306 7.58229 7.24013 7.73704 6.99426C7.89179 6.7484 8.11321 6.5492 8.37675 6.41874C8.64028 6.28829 8.93565 6.23168 9.2301 6.25519C9.52455 6.2787 9.80659 6.38141 10.045 6.55194Z" fill="white"/>
</svg>
